<?xml version="1.0" encoding="UTF-8" standalone="no"?>
<!DOCTYPE svg PUBLIC "-//W3C//DTD SVG 1.1//EN"
 "http://www.w3.org/Graphics/SVG/1.1/DTD/svg11.dtd">
<!-- Generated by graphviz version 2.44.1 (20200629.0846)
 -->
<!-- Title: dependencies Pages: 1 -->
<svg width="2822pt" height="284pt"
 viewBox="0.00 0.00 2822.00 284.00" xmlns="http://www.w3.org/2000/svg" xmlns:xlink="http://www.w3.org/1999/xlink">
<g id="graph0" class="graph" transform="scale(1 1) rotate(0) translate(4 280)">
<title>dependencies</title>
<polygon fill="white" stroke="transparent" points="-4,4 -4,-280 2818,-280 2818,4 -4,4"/>
<text text-anchor="start" x="1386.01" y="-42.4" font-family="sans-serif" font-weight="bold" font-size="14.00">Legend</text>
<polygon fill="#ffffb3" stroke="transparent" points="1173,-10 1173,-30 1193,-30 1193,-10 1173,-10"/>
<text text-anchor="start" x="1196.63" y="-15.4" font-family="sans-serif" font-size="14.00"> &#160;Declarations</text>
<polygon fill="#8dd3c7" stroke="transparent" points="1286,-10 1286,-30 1306,-30 1306,-10 1286,-10"/>
<text text-anchor="start" x="1309.73" y="-15.4" font-family="sans-serif" font-size="14.00"> &#160;Module</text>
<polygon fill="#80b1d3" stroke="transparent" points="1372,-10 1372,-30 1392,-30 1392,-10 1372,-10"/>
<text text-anchor="start" x="1395.78" y="-15.4" font-family="sans-serif" font-size="14.00"> &#160;Bootstrap</text>
<polygon fill="#fdb462" stroke="transparent" points="1469,-10 1469,-30 1489,-30 1489,-10 1469,-10"/>
<text text-anchor="start" x="1492.67" y="-15.4" font-family="sans-serif" font-size="14.00"> &#160;Providers</text>
<polygon fill="#fb8072" stroke="transparent" points="1565,-10 1565,-30 1585,-30 1585,-10 1565,-10"/>
<text text-anchor="start" x="1588.73" y="-15.4" font-family="sans-serif" font-size="14.00"> &#160;Exports</text>
<g id="clust1" class="cluster">
<title>cluster_AppModule</title>
<polygon fill="none" stroke="black" stroke-dasharray="1,5" points="8,-70 8,-268 2806,-268 2806,-70 8,-70"/>
</g>
<g id="clust2" class="cluster">
<title>cluster_AppModule_declarations</title>
<polygon fill="none" stroke="black" points="338,-78 338,-130 2798,-130 2798,-78 338,-78"/>
</g>
<g id="clust19" class="cluster">
<title>cluster_AppModule_imports</title>
<polygon fill="none" stroke="black" points="186,-78 186,-130 330,-130 330,-78 186,-78"/>
</g>
<g id="clust21" class="cluster">
<title>cluster_AppModule_bootstrap</title>
<polygon fill="none" stroke="black" points="1463,-208 1463,-260 1587,-260 1587,-208 1463,-208"/>
</g>
<g id="clust22" class="cluster">
<title>cluster_AppModule_providers</title>
<polygon fill="none" stroke="black" points="16,-78 16,-130 178,-130 178,-78 16,-78"/>
</g>
<!-- AppComponent -->
<g id="node1" class="node">
<title>AppComponent</title>
<polygon fill="#ffffb3" stroke="black" points="2789.94,-122 2684.06,-122 2684.06,-86 2789.94,-86 2789.94,-122"/>
<text text-anchor="middle" x="2737" y="-99.8" font-family="Times,serif" font-size="14.00">AppComponent</text>
</g>
<!-- AppModule -->
<g id="node17" class="node">
<title>AppModule</title>
<polygon fill="#8dd3c7" stroke="black" points="1566.66,-187 1563.66,-191 1542.66,-191 1539.66,-187 1483.34,-187 1483.34,-151 1566.66,-151 1566.66,-187"/>
<text text-anchor="middle" x="1525" y="-164.8" font-family="Times,serif" font-size="14.00">AppModule</text>
</g>
<!-- AppComponent&#45;&gt;AppModule -->
<g id="edge1" class="edge">
<title>AppComponent&#45;&gt;AppModule</title>
<path fill="none" stroke="black" d="M2737,-122.32C2737,-145.66 2737,-183 2737,-183 2737,-183 1576.72,-183 1576.72,-183"/>
<polygon fill="black" stroke="black" points="1576.72,-179.5 1566.72,-183 1576.72,-186.5 1576.72,-179.5"/>
</g>
<!-- HelpComponent -->
<g id="node2" class="node">
<title>HelpComponent</title>
<polygon fill="#ffffb3" stroke="black" points="2666.05,-122 2557.95,-122 2557.95,-86 2666.05,-86 2666.05,-122"/>
<text text-anchor="middle" x="2612" y="-99.8" font-family="Times,serif" font-size="14.00">HelpComponent</text>
</g>
<!-- HelpComponent&#45;&gt;AppModule -->
<g id="edge2" class="edge">
<title>HelpComponent&#45;&gt;AppModule</title>
<path fill="none" stroke="black" d="M2612,-122.16C2612,-144.35 2612,-179 2612,-179 2612,-179 1576.95,-179 1576.95,-179"/>
<polygon fill="black" stroke="black" points="1576.95,-175.5 1566.95,-179 1576.95,-182.5 1576.95,-175.5"/>
</g>
<!-- HomeComponent -->
<g id="node3" class="node">
<title>HomeComponent</title>
<polygon fill="#ffffb3" stroke="black" points="2539.55,-122 2424.45,-122 2424.45,-86 2539.55,-86 2539.55,-122"/>
<text text-anchor="middle" x="2482" y="-99.8" font-family="Times,serif" font-size="14.00">HomeComponent</text>
</g>
<!-- HomeComponent&#45;&gt;AppModule -->
<g id="edge3" class="edge">
<title>HomeComponent&#45;&gt;AppModule</title>
<path fill="none" stroke="black" d="M2482,-122.28C2482,-143.32 2482,-175 2482,-175 2482,-175 1576.74,-175 1576.74,-175"/>
<polygon fill="black" stroke="black" points="1576.74,-171.5 1566.74,-175 1576.74,-178.5 1576.74,-171.5"/>
</g>
<!-- LoginComponent -->
<g id="node4" class="node">
<title>LoginComponent</title>
<polygon fill="#ffffb3" stroke="black" points="2406.28,-122 2291.72,-122 2291.72,-86 2406.28,-86 2406.28,-122"/>
<text text-anchor="middle" x="2349" y="-99.8" font-family="Times,serif" font-size="14.00">LoginComponent</text>
</g>
<!-- LoginComponent&#45;&gt;AppModule -->
<g id="edge4" class="edge">
<title>LoginComponent&#45;&gt;AppModule</title>
<path fill="none" stroke="black" d="M2349,-122.31C2349,-142.15 2349,-171 2349,-171 2349,-171 1576.71,-171 1576.71,-171"/>
<polygon fill="black" stroke="black" points="1576.71,-167.5 1566.71,-171 1576.71,-174.5 1576.71,-167.5"/>
</g>
<!-- NavbarComponent -->
<g id="node5" class="node">
<title>NavbarComponent</title>
<polygon fill="#ffffb3" stroke="black" points="2273.03,-122 2150.97,-122 2150.97,-86 2273.03,-86 2273.03,-122"/>
<text text-anchor="middle" x="2212" y="-99.8" font-family="Times,serif" font-size="14.00">NavbarComponent</text>
</g>
<!-- NavbarComponent&#45;&gt;AppModule -->
<g id="edge5" class="edge">
<title>NavbarComponent&#45;&gt;AppModule</title>
<path fill="none" stroke="black" d="M2212,-122.22C2212,-140.83 2212,-167 2212,-167 2212,-167 1576.68,-167 1576.68,-167"/>
<polygon fill="black" stroke="black" points="1576.68,-163.5 1566.68,-167 1576.68,-170.5 1576.68,-163.5"/>
</g>
<!-- PostDeleteComponent -->
<g id="node6" class="node">
<title>PostDeleteComponent</title>
<polygon fill="#ffffb3" stroke="black" points="2132.98,-122 1991.02,-122 1991.02,-86 2132.98,-86 2132.98,-122"/>
<text text-anchor="middle" x="2062" y="-99.8" font-family="Times,serif" font-size="14.00">PostDeleteComponent</text>
</g>
<!-- PostDeleteComponent&#45;&gt;AppModule -->
<g id="edge6" class="edge">
<title>PostDeleteComponent&#45;&gt;AppModule</title>
<path fill="none" stroke="black" d="M2062,-122.02C2062,-139.37 2062,-163 2062,-163 2062,-163 1576.69,-163 1576.69,-163"/>
<polygon fill="black" stroke="black" points="1576.69,-159.5 1566.69,-163 1576.69,-166.5 1576.69,-159.5"/>
</g>
<!-- PostDetailsComponent -->
<g id="node7" class="node">
<title>PostDetailsComponent</title>
<polygon fill="#ffffb3" stroke="black" points="1972.6,-122 1827.4,-122 1827.4,-86 1972.6,-86 1972.6,-122"/>
<text text-anchor="middle" x="1900" y="-99.8" font-family="Times,serif" font-size="14.00">PostDetailsComponent</text>
</g>
<!-- PostDetailsComponent&#45;&gt;AppModule -->
<g id="edge7" class="edge">
<title>PostDetailsComponent&#45;&gt;AppModule</title>
<path fill="none" stroke="black" d="M1900,-122.01C1900,-138.05 1900,-159 1900,-159 1900,-159 1576.93,-159 1576.93,-159"/>
<polygon fill="black" stroke="black" points="1576.93,-155.5 1566.93,-159 1576.93,-162.5 1576.93,-155.5"/>
</g>
<!-- PostEditComponent -->
<g id="node8" class="node">
<title>PostEditComponent</title>
<polygon fill="#ffffb3" stroke="black" points="1809.28,-122 1680.72,-122 1680.72,-86 1809.28,-86 1809.28,-122"/>
<text text-anchor="middle" x="1745" y="-99.8" font-family="Times,serif" font-size="14.00">PostEditComponent</text>
</g>
<!-- PostEditComponent&#45;&gt;AppModule -->
<g id="edge8" class="edge">
<title>PostEditComponent&#45;&gt;AppModule</title>
<path fill="none" stroke="black" d="M1745,-122.12C1745,-136.78 1745,-155 1745,-155 1745,-155 1576.9,-155 1576.9,-155"/>
<polygon fill="black" stroke="black" points="1576.9,-151.5 1566.9,-155 1576.9,-158.5 1576.9,-151.5"/>
</g>
<!-- PostListComponent -->
<g id="node9" class="node">
<title>PostListComponent</title>
<polygon fill="#ffffb3" stroke="black" points="1662.73,-122 1535.27,-122 1535.27,-86 1662.73,-86 1662.73,-122"/>
<text text-anchor="middle" x="1599" y="-99.8" font-family="Times,serif" font-size="14.00">PostListComponent</text>
</g>
<!-- PostListComponent&#45;&gt;AppModule -->
<g id="edge9" class="edge">
<title>PostListComponent&#45;&gt;AppModule</title>
<path fill="none" stroke="black" d="M1551.11,-122.11C1551.11,-122.11 1551.11,-140.99 1551.11,-140.99"/>
<polygon fill="black" stroke="black" points="1547.61,-140.99 1551.11,-150.99 1554.61,-140.99 1547.61,-140.99"/>
</g>
<!-- PostNewComponent -->
<g id="node10" class="node">
<title>PostNewComponent</title>
<polygon fill="#ffffb3" stroke="black" points="1516.88,-122 1385.12,-122 1385.12,-86 1516.88,-86 1516.88,-122"/>
<text text-anchor="middle" x="1451" y="-99.8" font-family="Times,serif" font-size="14.00">PostNewComponent</text>
</g>
<!-- PostNewComponent&#45;&gt;AppModule -->
<g id="edge10" class="edge">
<title>PostNewComponent&#45;&gt;AppModule</title>
<path fill="none" stroke="black" d="M1500.06,-122.11C1500.06,-122.11 1500.06,-140.99 1500.06,-140.99"/>
<polygon fill="black" stroke="black" points="1496.56,-140.99 1500.06,-150.99 1503.56,-140.99 1496.56,-140.99"/>
</g>
<!-- RegisterComponent -->
<g id="node11" class="node">
<title>RegisterComponent</title>
<polygon fill="#ffffb3" stroke="black" points="1366.98,-122 1239.02,-122 1239.02,-86 1366.98,-86 1366.98,-122"/>
<text text-anchor="middle" x="1303" y="-99.8" font-family="Times,serif" font-size="14.00">RegisterComponent</text>
</g>
<!-- RegisterComponent&#45;&gt;AppModule -->
<g id="edge11" class="edge">
<title>RegisterComponent&#45;&gt;AppModule</title>
<path fill="none" stroke="black" d="M1303,-122.12C1303,-136.78 1303,-155 1303,-155 1303,-155 1473.24,-155 1473.24,-155"/>
<polygon fill="black" stroke="black" points="1473.24,-158.5 1483.24,-155 1473.24,-151.5 1473.24,-158.5"/>
</g>
<!-- RepeatPasswordValidatorDirective -->
<g id="node12" class="node">
<title>RepeatPasswordValidatorDirective</title>
<polygon fill="#ffffb3" stroke="black" points="1220.98,-122 1007.02,-122 1007.02,-86 1220.98,-86 1220.98,-122"/>
<text text-anchor="middle" x="1114" y="-99.8" font-family="Times,serif" font-size="14.00">RepeatPasswordValidatorDirective</text>
</g>
<!-- RepeatPasswordValidatorDirective&#45;&gt;AppModule -->
<g id="edge12" class="edge">
<title>RepeatPasswordValidatorDirective&#45;&gt;AppModule</title>
<path fill="none" stroke="black" d="M1114,-122.01C1114,-138.05 1114,-159 1114,-159 1114,-159 1473.33,-159 1473.33,-159"/>
<polygon fill="black" stroke="black" points="1473.33,-162.5 1483.33,-159 1473.33,-155.5 1473.33,-162.5"/>
</g>
<!-- UniqueUsernameDirective -->
<g id="node13" class="node">
<title>UniqueUsernameDirective</title>
<polygon fill="#ffffb3" stroke="black" points="989.04,-122 822.96,-122 822.96,-86 989.04,-86 989.04,-122"/>
<text text-anchor="middle" x="906" y="-99.8" font-family="Times,serif" font-size="14.00">UniqueUsernameDirective</text>
</g>
<!-- UniqueUsernameDirective&#45;&gt;AppModule -->
<g id="edge13" class="edge">
<title>UniqueUsernameDirective&#45;&gt;AppModule</title>
<path fill="none" stroke="black" d="M906,-122.02C906,-139.37 906,-163 906,-163 906,-163 1472.94,-163 1472.94,-163"/>
<polygon fill="black" stroke="black" points="1472.94,-166.5 1482.94,-163 1472.94,-159.5 1472.94,-166.5"/>
</g>
<!-- UserDeleteComponent -->
<g id="node14" class="node">
<title>UserDeleteComponent</title>
<polygon fill="#ffffb3" stroke="black" points="805.29,-122 660.71,-122 660.71,-86 805.29,-86 805.29,-122"/>
<text text-anchor="middle" x="733" y="-99.8" font-family="Times,serif" font-size="14.00">UserDeleteComponent</text>
</g>
<!-- UserDeleteComponent&#45;&gt;AppModule -->
<g id="edge14" class="edge">
<title>UserDeleteComponent&#45;&gt;AppModule</title>
<path fill="none" stroke="black" d="M733,-122.22C733,-140.83 733,-167 733,-167 733,-167 1473.26,-167 1473.26,-167"/>
<polygon fill="black" stroke="black" points="1473.26,-170.5 1483.26,-167 1473.26,-163.5 1473.26,-170.5"/>
</g>
<!-- UserDetailsComponent -->
<g id="node15" class="node">
<title>UserDetailsComponent</title>
<polygon fill="#ffffb3" stroke="black" points="642.91,-122 495.09,-122 495.09,-86 642.91,-86 642.91,-122"/>
<text text-anchor="middle" x="569" y="-99.8" font-family="Times,serif" font-size="14.00">UserDetailsComponent</text>
</g>
<!-- UserDetailsComponent&#45;&gt;AppModule -->
<g id="edge15" class="edge">
<title>UserDetailsComponent&#45;&gt;AppModule</title>
<path fill="none" stroke="black" d="M569,-122.31C569,-142.15 569,-171 569,-171 569,-171 1473.31,-171 1473.31,-171"/>
<polygon fill="black" stroke="black" points="1473.31,-174.5 1483.31,-171 1473.31,-167.5 1473.31,-174.5"/>
</g>
<!-- UserEditComponent -->
<g id="node16" class="node">
<title>UserEditComponent</title>
<polygon fill="#ffffb3" stroke="black" points="477.59,-122 346.41,-122 346.41,-86 477.59,-86 477.59,-122"/>
<text text-anchor="middle" x="412" y="-99.8" font-family="Times,serif" font-size="14.00">UserEditComponent</text>
</g>
<!-- UserEditComponent&#45;&gt;AppModule -->
<g id="edge16" class="edge">
<title>UserEditComponent&#45;&gt;AppModule</title>
<path fill="none" stroke="black" d="M412,-122.28C412,-143.32 412,-175 412,-175 412,-175 1473.06,-175 1473.06,-175"/>
<polygon fill="black" stroke="black" points="1473.06,-178.5 1483.06,-175 1473.06,-171.5 1473.06,-178.5"/>
</g>
<!-- AppComponent  -->
<g id="node19" class="node">
<title>AppComponent </title>
<polygon fill="#80b1d3" stroke="black" points="1579.44,-252 1470.56,-252 1470.56,-216 1579.44,-216 1579.44,-252"/>
<text text-anchor="middle" x="1525" y="-229.8" font-family="Times,serif" font-size="14.00">AppComponent </text>
</g>
<!-- AppModule&#45;&gt;AppComponent  -->
<g id="edge18" class="edge">
<title>AppModule&#45;&gt;AppComponent </title>
<path fill="none" stroke="black" stroke-dasharray="1,5" d="M1525,-187.11C1525,-187.11 1525,-205.99 1525,-205.99"/>
<polygon fill="black" stroke="black" points="1521.5,-205.99 1525,-215.99 1528.5,-205.99 1521.5,-205.99"/>
</g>
<!-- AppRoutingModule -->
<g id="node18" class="node">
<title>AppRoutingModule</title>
<polygon fill="#8dd3c7" stroke="black" points="322.27,-122 319.27,-126 298.27,-126 295.27,-122 193.73,-122 193.73,-86 322.27,-86 322.27,-122"/>
<text text-anchor="middle" x="258" y="-99.8" font-family="Times,serif" font-size="14.00">AppRoutingModule</text>
</g>
<!-- AppRoutingModule&#45;&gt;AppModule -->
<g id="edge17" class="edge">
<title>AppRoutingModule&#45;&gt;AppModule</title>
<path fill="none" stroke="black" d="M258,-122.16C258,-144.35 258,-179 258,-179 258,-179 1473.21,-179 1473.21,-179"/>
<polygon fill="black" stroke="black" points="1473.21,-182.5 1483.21,-179 1473.21,-175.5 1473.21,-182.5"/>
</g>
<!-- AuthInterceptor -->
<g id="node20" class="node">
<title>AuthInterceptor</title>
<ellipse fill="#fdb462" stroke="black" cx="97" cy="-104" rx="72.91" ry="18"/>
<text text-anchor="middle" x="97" y="-99.8" font-family="Times,serif" font-size="14.00">AuthInterceptor</text>
</g>
<!-- AuthInterceptor&#45;&gt;AppModule -->
<g id="edge19" class="edge">
<title>AuthInterceptor&#45;&gt;AppModule</title>
<path fill="none" stroke="black" d="M97,-122.32C97,-145.66 97,-183 97,-183 97,-183 1473.04,-183 1473.04,-183"/>
<polygon fill="black" stroke="black" points="1473.04,-186.5 1483.04,-183 1473.04,-179.5 1473.04,-186.5"/>
</g>
</g>
</svg>
